<?xml version="1.0" encoding="iso-8859-1"?>
<!-- Generator: Adobe Illustrator 19.0.0, SVG Export Plug-In . SVG Version: 6.00 Build 0)  -->
<svg version="1.1" id="Capa_1" xmlns="http://www.w3.org/2000/svg" xmlns:xlink="http://www.w3.org/1999/xlink" x="0px" y="0px"
	 viewBox="0 0 512 512" style="enable-background:new 0 0 512 512;" xml:space="preserve">
<path style="fill:#FFFFFF;" d="M464,504H48c-22.4,0-40-17.6-40-40V224c0-22.4,17.6-40,40-40h416c22.4,0,40,17.6,40,40v240
	C504,486.4,486.4,504,464,504z"/>
<path style="fill:#44C4A1;" d="M49.6,472c-5.6,0-9.6-4-9.6-9.6V225.6c0-5.6,4-9.6,9.6-9.6h413.6c4.8,0,9.6,4,9.6,9.6v237.6
	c0,4.8-4,9.6-9.6,9.6H49.6V472z"/>
<g>
	<circle style="fill:#FFFFFF;" cx="256" cy="37.6" r="29.6"/>
	<path style="fill:#FFFFFF;" d="M152.8,384c-6.4,3.2-13.6,4.8-23.2,4.8c-12,0-21.6-4-28.8-12c-7.2-8-11.2-18.4-11.2-31.2
		c0-13.6,4-25.6,12-33.6c8-8.8,18.4-12.8,31.2-12.8c8,0,14.4,0.8,20,3.2v11.2c-6.4-3.2-12.8-5.6-20-5.6c-9.6,0-17.6,3.2-23.2,10.4
		c-6.4,6.4-8.8,16-8.8,27.2c0,10.4,3.2,19.2,8.8,25.6c5.6,6.4,12.8,9.6,22.4,9.6c8.8,0,16-1.6,21.6-5.6v8.8H152.8z"/>
	<path style="fill:#FFFFFF;" d="M213.6,388h-44v-88h9.6v78.4h33.6v9.6H213.6z"/>
	<path style="fill:#FFFFFF;" d="M256.8,389.6c-12,0-21.6-4-28.8-12s-10.4-19.2-10.4-32c0-14.4,4-25.6,11.2-33.6s17.6-12.8,29.6-12.8
		s20.8,4,28,12s10.4,18.4,10.4,32c0,14.4-4,25.6-11.2,33.6C278.4,384.8,268.8,389.6,256.8,389.6z M257.6,308c-8.8,0-16,3.2-21.6,9.6
		s-8,15.2-8,26.4c0,10.4,2.4,19.2,8,26.4c5.6,6.4,12.8,9.6,20.8,9.6c9.6,0,16.8-3.2,21.6-9.6c5.6-6.4,8-15.2,8-26.4
		c0-11.2-2.4-20.8-8-26.4C273.6,311.2,266.4,308,257.6,308z"/>
	<path style="fill:#FFFFFF;" d="M309.6,384v-12c1.6,1.6,3.2,2.4,4.8,3.2c1.6,0.8,4,1.6,5.6,2.4c2.4,0.8,4,0.8,6.4,1.6
		c2.4,0,4,0.8,5.6,0.8c6.4,0,10.4-0.8,13.6-3.2c3.2-2.4,4.8-5.6,4.8-10.4c0-2.4-0.8-4.8-1.6-6.4c-0.8-1.6-2.4-3.2-4-4.8
		c-1.6-1.6-4-3.2-6.4-4c-2.4-1.6-4.8-2.4-8-4s-5.6-3.2-8-4.8c-2.4-1.6-4.8-3.2-6.4-5.6c-1.6-1.6-3.2-4-4.8-6.4
		c-0.8-2.4-1.6-5.6-1.6-8.8c0-4,0.8-7.2,2.4-10.4c1.6-3.2,4-5.6,6.4-7.2s5.6-3.2,9.6-4c3.2-0.8,7.2-1.6,10.4-1.6
		c8,0,14.4,0.8,18.4,3.2v11.2c-4.8-3.2-11.2-5.6-19.2-5.6c-2.4,0-4,0-6.4,0.8s-4,1.6-5.6,2.4s-3.2,2.4-4,4c-1.6,2.4-1.6,4.8-1.6,7.2
		s0.8,4,1.6,5.6c0.8,1.6,1.6,3.2,3.2,4.8c1.6,1.6,3.2,2.4,5.6,4s4.8,2.4,8,4s5.6,3.2,8.8,4.8c2.4,1.6,4.8,4,7.2,5.6
		c2.4,2.4,4,4,4.8,7.2c0.8,2.4,1.6,5.6,1.6,8.8c0,4-0.8,8-2.4,11.2s-4,5.6-6.4,7.2s-5.6,3.2-9.6,4s-7.2,1.6-11.2,1.6
		c-1.6,0-3.2,0-4.8,0c-1.6,0-4-0.8-5.6-0.8c-2.4-0.8-4-0.8-5.6-1.6C312,385.6,310.4,384.8,309.6,384z"/>
	<path style="fill:#FFFFFF;" d="M421.6,388h-44.8v-88h42.4v9.6h-32.8v28.8h30.4v9.6h-30.4v30.4h34.4v9.6H421.6z"/>
</g>
<g>
	<rect x="72" y="240" style="fill:#193651;" width="16" height="16"/>
	<rect x="424" y="240" style="fill:#193651;" width="16" height="16"/>
	<rect x="72" y="432" style="fill:#193651;" width="16" height="16"/>
	<rect x="424" y="432" style="fill:#193651;" width="16" height="16"/>
	<path style="fill:#193651;" d="M48,512h416c26.4,0,48-21.6,48-48V224c0-26.4-21.6-48-48-48h-28.8L288.8,54.4c2.4-4.8,4-11.2,4-16.8
		C293.6,16.8,276.8,0,256,0s-37.6,16.8-37.6,37.6c0,6.4,1.6,12,4,16.8L76.8,176H48c-26.4,0-48,21.6-48,48v240
		C0,490.4,21.6,512,48,512z M256,16c12,0,21.6,9.6,21.6,21.6S268,58.4,256,58.4s-21.6-9.6-21.6-21.6S244,16,256,16z M233.6,66.4
		c6.4,4.8,14.4,8,22.4,8s16.8-3.2,22.4-8L409.6,176H102.4L233.6,66.4z M16,224c0-17.6,14.4-32,32-32h416c17.6,0,32,14.4,32,32v240
		c0,17.6-14.4,32-32,32H48c-17.6,0-32-14.4-32-32V224z"/>
</g>
<g>
</g>
<g>
</g>
<g>
</g>
<g>
</g>
<g>
</g>
<g>
</g>
<g>
</g>
<g>
</g>
<g>
</g>
<g>
</g>
<g>
</g>
<g>
</g>
<g>
</g>
<g>
</g>
<g>
</g>
</svg>
